<svg xmlns="http://www.w3.org/2000/svg"  viewBox="0 0 64 64" width="64px" height="64px" baseProfile="basic"><path fill="#fd3c4f" d="M54,20v24c0,2.25-0.74,4.32-2,5.99V50c-1.69,2.24-4.29,3.75-7.25,3.97C44.51,53.99,44.25,54,44,54H20	c-5.52,0-10-4.48-10-10V20c0-0.25,0.01-0.51,0.03-0.75c0.22-2.96,1.73-5.56,3.97-7.25h0.01c1.67-1.26,3.74-2,5.99-2h24	C49.52,10,54,14.48,54,20z"/><path fill="#fff" d="M14.01,12H14c-2.24,1.69-3.75,4.29-3.97,7.25C10.01,19.49,10,19.75,10,20v12	c2.761,0,5-2.239,5-5v-7c0-0.108,0.003-0.221,0.017-0.38c0.102-1.375,0.778-2.65,1.862-3.525c0.048-0.033,0.095-0.068,0.142-0.103	C17.881,15.343,18.911,15,20,15h6c2.761,0,5-2.239,5-5H20C17.75,10,15.68,10.74,14.01,12z" opacity=".3"/><ellipse cx="32" cy="61" opacity=".3" rx="20" ry="3"/><path d="M54,44V22c-2.761,0-5,2.238-5,5v17c0,2.757-2.243,5-5,5H33c-2.761,0-5,2.238-5,5h16 C49.523,54,54,49.523,54,44z" opacity=".15"/><path fill="none" stroke="#fff" stroke-linecap="round" stroke-linejoin="round" stroke-miterlimit="10" stroke-width="3" d="M13.5,23.5V20c0-0.153,0.005-0.312,0.018-0.459c0.135-1.809,1.003-3.46,2.396-4.594l0.204-0.152"/><path fill="#fff" d="M44.002,21.5c0-1.544-1.393-2.712-2.913-2.444l-15.039,2.71C24.864,21.976,24,23.006,24,24.21v9.973	c0,0.648-0.604,1.116-1.234,0.966c-0.771-0.184-1.604-0.205-2.467-0.019c-2.087,0.451-3.771,2.146-4.187,4.241	C15.41,42.903,18.093,46,21.5,46c3.038,0,5.5-2.462,5.5-5.5c0-0.04-0.005-0.078-0.006-0.117v-11.22l14.008-2.505l-0.002,5.526	c0,0.648-0.604,1.116-1.234,0.966c-0.771-0.184-1.604-0.206-2.467-0.019c-2.088,0.451-3.771,2.146-4.188,4.24	C32.41,40.902,35.093,44,38.5,44c3.026,0,5.48-2.445,5.498-5.467l0.004,0.006V21.5z"/></svg>